# xmcd
# 
# Track frame offsets:
#     150
#     28325
#     51085
#     72140
#     100013
#     117588
#     139258
#     182808
#     210890
#     241375
#     277760
# 
# Disc length: 4053
# 
# Revision: 12
# Processed by: cddbd v1.5.2PL0 Copyright (c) Steve Scherf et al.
# Submitted via: fre:ac v1.0.17
# 
DISCID=9a0fd30b
DTITLE=Bruce Cockburn - The Charity of Night
DYEAR=1996
DGENRE=Folk-Rock
TTITLE0=Night Train
TTITLE1=Get Up Jonah
TTITLE2=Pacing The Cage
TTITLE3=Mistress of Storms
TTITLE4=The Whole Night Sky
TTITLE5=The Coming Rains
TTITLE6=Birmingham Shadows
TTITLE7=The Mines of Mozambique
TTITLE8=Live On My Mind
TTITLE9=The Charity of Night
TTITLE10=Strange Waters
EXTD=YEAR: 1996 ID3G:  17
EXTT0=
EXTT1=
EXTT2=
EXTT3=
EXTT4=
EXTT5=
EXTT6=
EXTT7=
EXTT8=
EXTT9=
EXTT10=
PLAYORDER=
